# xmcd
#
# Track frame offsets:
#	150
#	13744
#	71947
#	94463
#	132696
#	201939
#
# Disc length: 3401 seconds
#
# Revision: 0
# Processed by: cddbd v1.5.2PL0 Copyright (c) Steve Scherf et al.
# Submitted via: audiograbber 1.83.01
#
DISCID=600d4706
DTITLE=Grateful Dead - 93-09-25 Boston Garden, Boston MA
DYEAR=1900
DGENRE=
TTITLE0=Tuning
TTITLE1=Foolish Heart
TTITLE2=Box Of Rain
TTITLE3=Crazy Fingers
TTITLE4=Corrina
TTITLE5=Drums
EXTD=
EXTT0=
EXTT1=
EXTT2=
EXTT3=
EXTT4=
EXTT5=
PLAYORDER=
